<?xml version="1.0" encoding="UTF-8" standalone="no"?>
<!-- Created with Inkscape (http://www.inkscape.org/) -->

<svg
   width="210mm"
   height="297mm"
   viewBox="0 0 210 297"
   version="1.1"
   id="svg5"
   sodipodi:docname="drawing-1.svg"
   inkscape:version="1.1 (c4e8f9e, 2021-05-24)"
   xmlns:inkscape="http://www.inkscape.org/namespaces/inkscape"
   xmlns:sodipodi="http://sodipodi.sourceforge.net/DTD/sodipodi-0.dtd"
   xmlns="http://www.w3.org/2000/svg"
   xmlns:svg="http://www.w3.org/2000/svg">
  <sodipodi:namedview
     id="namedview7"
     pagecolor="#ffffff"
     bordercolor="#666666"
     borderopacity="1.0"
     inkscape:pageshadow="2"
     inkscape:pageopacity="0.0"
     inkscape:pagecheckerboard="0"
     inkscape:document-units="mm"
     showgrid="false"
     inkscape:zoom="0.48551487"
     inkscape:cx="143.14701"
     inkscape:cy="540.66315"
     inkscape:window-width="1312"
     inkscape:window-height="773"
     inkscape:window-x="26"
     inkscape:window-y="49"
     inkscape:window-maximized="0"
     inkscape:current-layer="layer1" />
  <defs
     id="defs2" />
  <g
     inkscape:label="Layer 1"
     inkscape:groupmode="layer"
     id="layer1">
    <path
       d="m 55.830743,15.710858 c 0.107146,-0.04947 0.202836,0.08995 0.340962,0.412365 1.156464,2.698894 4.57081,4.331373 9.032629,4.318783 2.203376,-0.0062 6.46173,-0.625867 9.844345,-1.432455 3.240985,-0.77284 4.02408,-0.949897 4.788751,-1.08291 6.820764,-1.186128 11.168652,0.627524 12.722146,5.306294 0.664948,2.002924 0.233047,4.595982 -1.017069,6.106092 l -0.193448,0.233637 0.559185,0.02971 c 2.807795,0.149244 4.627838,2.883222 4.913845,7.130861 -0.262024,4.249678 -2.066602,6.997133 -4.873491,7.167251 l -0.559019,0.03388 0.194766,0.232193 c 1.258611,1.500784 1.705111,4.090572 1.051508,6.0984 -1.527057,4.690263 -5.864608,6.536174 -12.691929,5.400794 -0.765438,-0.127285 -1.549484,-0.29852 -4.794764,-1.047275 -3.387096,-0.781415 -7.648856,-1.369389 -9.852221,-1.359213 -4.461795,0.02064 -7.866857,1.678425 -9.008067,4.385862 -0.136303,0.323432 -0.231204,0.463574 -0.33863,0.414897 -0.107146,0.04947 -0.202836,-0.08996 -0.340962,-0.412369 -1.156464,-2.698892 -4.57081,-4.331372 -9.032626,-4.318782 -2.203377,0.0062 -6.461734,0.62587 -9.84435,1.432454 -3.240985,0.772839 -4.024076,0.949898 -4.788746,1.08291 -6.820768,1.186125 -11.168654,-0.627526 -12.722149,-5.306296 -0.66495,-2.002928 -0.233044,-4.595983 1.017069,-6.106094 l 0.193416,-0.233635 -0.559188,-0.0297 c -2.807788,-0.14924 -4.627836,-2.88322 -4.913841,-7.130859 0.262029,-4.249677 2.066608,-6.997131 4.873495,-7.167253 l 0.55901,-0.03387 -0.194731,-0.23219 c -1.258613,-1.500783 -1.705108,-4.090574 -1.05151,-6.098403 1.527055,-4.690261 5.864618,-6.536171 12.691935,-5.400793 0.765407,0.127287 1.549483,0.298518 4.79476,1.047276 3.387095,0.781414 7.64886,1.36939 9.852225,1.359213 4.461794,-0.02062 7.866854,-1.678427 9.008063,-4.385864 0.136307,-0.323471 0.231205,-0.463609 0.338631,-0.414893 z m 38.662816,21.03111 c -0.169274,-1.457076 -0.64807,-2.629424 -1.429028,-3.678517 -0.581907,-0.781604 -1.512291,-0.965214 -2.205104,-0.435205 -0.228728,0.174996 -0.230983,0.212851 -0.01778,0.300454 1.060924,0.435935 1.01133,2.612176 -0.06804,2.984451 -1.944462,0.670775 -3.603924,-2.533452 -2.324077,-4.487588 0.106541,-0.162686 0.193694,-0.305295 0.193662,-0.316894 -3.2e-5,-0.01158 -0.251369,-0.02931 -0.558518,-0.03937 -2.755779,-0.09015 -3.426585,-4.678521 -0.686486,-4.695392 0.723299,-0.0044 1.480242,0.692845 1.482465,1.365635 7.94e-4,0.434001 0.783944,-0.361232 1.082653,-1.10026 0.872201,-2.157752 -0.276131,-4.603348 -2.608075,-5.554646 -1.75958,-0.717793 -3.794752,-0.552231 -11.507558,0.936059 -4.800607,0.926355 -6.183706,1.115849 -8.888583,1.217973 -4.717702,0.17293 -8.501316,-0.899543 -10.748678,-3.051897 l -0.349667,-0.334842 -0.01828,0.01882 -0.01839,-0.01869 -0.347771,0.337435 c -2.235173,2.169059 -6.012656,3.26961 -10.731234,3.131768 -2.705398,-0.08197 -4.089536,-0.261173 -8.895272,-1.151844 -7.721077,-1.430902 -9.757105,-1.581327 -11.512599,-0.850462 -2.326523,0.968584 -3.461028,3.422706 -2.57668,5.573926 0.302867,0.736755 1.090063,1.526187 1.088837,1.092183 -0.0016,-0.672793 0.751413,-1.375701 1.474726,-1.376628 2.740167,-0.0035 2.095276,4.589755 -0.659972,4.700399 -0.307084,0.01234 -0.558316,0.03192 -0.558281,0.04352 3.1e-5,0.01158 0.08799,0.153554 0.195445,0.315443 1.290819,1.944581 -0.350502,5.16108 -2.298705,4.504781 -1.081411,-0.364231 -1.143258,-2.540059 -0.08485,-2.983873 0.212724,-0.08918 0.210253,-0.127025 -0.01944,-0.300317 -0.695794,-0.524842 -1.625119,-0.334319 -2.202601,0.451597 -0.775087,1.054879 -1.247218,2.230761 -1.408301,3.689063 0.169277,1.457076 0.648066,2.629425 1.429023,3.678518 0.581908,0.781607 1.512289,0.965213 2.205107,0.435206 0.228726,-0.174998 0.230983,-0.212854 0.01773,-0.300456 -1.060922,-0.435934 -1.011328,-2.612173 0.068,-2.984447 1.94446,-0.670779 3.603926,2.533449 2.324075,4.487589 -0.106538,0.162683 -0.193691,0.30529 -0.193657,0.31689 3.2e-5,0.01158 0.251364,0.02931 0.558514,0.03937 2.755779,0.09015 3.426588,4.678522 0.686486,4.695393 -0.723305,0.0044 -1.480242,-0.692843 -1.482462,-1.365634 -0.0012,-0.434003 -0.783952,0.36123 -1.082652,1.100259 -0.872193,2.15775 0.276139,4.603351 2.608082,5.554645 1.759579,0.717795 3.79475,0.552237 11.507559,-0.936059 4.800607,-0.926353 6.183706,-1.115848 8.888583,-1.21797 4.717701,-0.172932 8.501316,0.899541 10.748679,3.051896 l 0.349664,0.334804 0.01828,-0.01881 0.01839,0.01867 0.347771,-0.337396 c 2.235175,-2.169058 6.01266,-3.269611 10.731238,-3.131764 2.705394,0.08197 4.089535,0.261171 8.895268,1.151841 7.721052,1.430903 9.757105,1.58129 11.512597,0.850463 2.326522,-0.968586 3.461032,-3.422707 2.576685,-5.573926 -0.30287,-0.736754 -1.090068,-1.526186 -1.088838,-1.092187 0.0016,0.672798 -0.75141,1.375704 -1.474724,1.376628 -2.740171,0.0035 -2.095277,-4.589753 0.65997,-4.700395 0.307085,-0.01234 0.558312,-0.03192 0.55828,-0.04353 -3.2e-5,-0.01158 -0.08799,-0.153554 -0.19544,-0.315442 -1.29082,-1.944581 0.350495,-5.161081 2.298704,-4.504779 1.081406,0.36424 1.14325,2.540063 0.08484,2.983882 -0.212723,0.08918 -0.210246,0.127024 0.01945,0.300317 0.695798,0.524842 1.625119,0.334321 2.202603,-0.451596 0.775084,-1.054917 1.247251,-2.230762 1.4083,-3.689065 z m 1.870899,-0.0069 c -0.192169,-2.666246 -1.021253,-4.770356 -2.335596,-5.792282 -2.640831,-2.053101 -6.271779,0.01404 -5.426269,3.089208 0.477406,1.736162 2.575295,2.026362 2.570579,0.355619 -0.0024,-0.843592 -0.525555,-1.211636 -1.209477,-0.850779 l -0.379051,0.200007 0.187049,-0.405155 c 0.85664,-1.855433 2.628732,-2.063039 3.759487,-0.440386 0.780848,1.120492 1.258159,2.346809 1.424018,3.849009 -0.157381,1.5034 -0.627801,2.733276 -1.402265,3.859516 -1.121578,1.631028 -2.894805,1.436567 -3.761893,-0.412455 l -0.189335,-0.403753 0.38017,0.19718 c 0.685946,0.355799 1.20704,-0.01614 1.204659,-0.859755 -0.0048,-1.670743 -2.100954,-1.364945 -2.568524,0.374728 -0.82814,3.081399 2.8144,5.121487 5.443585,3.048789 1.308554,-1.031643 2.125746,-3.141875 2.302863,-5.809491 z m -80.947894,0.300964 c 0.192135,2.666249 1.021255,4.770353 2.335597,5.792281 2.640827,2.053102 6.271779,-0.01403 5.426263,-3.089208 -0.477412,-1.736162 -2.575326,-2.026362 -2.570612,-0.355621 0.0023,0.843557 0.52556,1.211636 1.209481,0.85078 l 0.379049,-0.200007 -0.18705,0.405156 c -0.856634,1.855435 -2.628734,2.06304 -3.759486,0.440423 -0.780841,-1.120493 -1.258153,-2.346809 -1.424011,-3.849008 0.157377,-1.503404 0.62779,-2.73328 1.402261,-3.859519 1.121573,-1.631026 2.894801,-1.436568 3.761892,0.41242 l 0.189331,0.403752 -0.38017,-0.19718 c -0.685944,-0.355799 -1.207033,0.01615 -1.204651,0.859756 0.0047,1.670706 2.100948,1.364949 2.568548,-0.374729 0.828139,-3.081399 -2.814398,-5.121487 -5.443586,-3.048792 -1.308577,1.031646 -2.125774,3.141877 -2.302856,5.809496 z M 55.84062,19.212098 c 0.109013,-0.01221 0.211275,0.110073 0.445354,0.359412 1.403486,1.494808 4.304134,2.764496 6.963153,3.047912 3.083403,0.328604 6.744625,0.01369 12.223544,-1.051455 7.911516,-1.538 10.005571,-1.719345 11.873351,-1.02809 2.766226,1.023542 4.103115,3.98614 2.947217,6.531414 -0.427891,0.942106 -1.700165,1.831334 -1.784476,1.247246 -0.157635,-1.092638 -0.415856,-1.4102 -1.14056,-1.402549 -1.048722,0.01095 -1.620959,1.103951 -1.145355,2.187732 0.631795,1.439605 1.984157,1.859515 3.426935,1.063923 0.217018,-0.119667 0.521046,-0.286136 0.675585,-0.369894 2.014872,-1.092307 2.688052,-4.828234 1.350147,-7.492717 -2.170967,-4.317609 -6.619464,-5.204579 -15.372056,-3.063192 -2.9422,0.720226 -6.023186,1.282167 -8.764001,1.600785 -5.181359,0.601723 -9.681944,-0.884249 -11.412168,-3.767306 l -0.268602,-0.447581 -0.02525,0.04323 -0.02553,-0.04304 -0.266071,0.449569 c -1.713919,2.895863 -6.20602,4.415274 -11.390665,3.852097 -2.742557,-0.298229 -5.826616,-0.837245 -8.772851,-1.535577 -8.764432,-2.076326 -13.207856,-1.156255 -15.354383,3.177373 -1.322842,2.674376 -0.628553,6.405219 1.392402,7.48252 0.15501,0.08265 0.459973,0.246842 0.677656,0.36486 1.447214,0.784846 2.79721,0.354924 3.420833,-1.089386 0.469474,-1.087296 -0.108887,-2.175982 -1.157651,-2.179169 -0.724728,-0.0023 -0.981155,0.317251 -1.132619,1.411002 -0.08098,0.584742 -1.358276,-0.295045 -1.791478,-1.233948 -1.170241,-2.536625 0.149909,-5.509103 2.910293,-6.553196 1.863843,-0.705129 3.958882,-0.539397 11.878907,0.939771 5.484816,1.024372 9.147741,1.312057 12.229219,0.960529 2.657363,-0.303184 5.550785,-1.59438 6.945808,-3.099632 0.232668,-0.250998 0.334235,-0.373982 0.443313,-0.362642 z m 0.09974,35.346785 c -0.109043,0.01209 -0.21127,-0.110073 -0.445353,-0.359414 -1.403486,-1.494811 -4.304134,-2.764499 -6.963155,-3.047911 -3.083399,-0.328603 -6.744624,-0.01371 -12.223543,1.051452 -7.911509,1.538 -10.005571,1.719309 -11.873351,1.02809 -2.76622,-1.023541 -4.103115,-3.98614 -2.94722,-6.531414 0.427898,-0.942106 1.700167,-1.831333 1.784478,-1.247247 0.157633,1.092641 0.41586,1.410202 1.140561,1.402551 1.048725,-0.01096 1.620961,-1.103949 1.145329,-2.187729 -0.631797,-1.439604 -1.984156,-1.859515 -3.426909,-1.063924 -0.21702,0.119667 -0.521043,0.286136 -0.675583,0.369892 -2.014869,1.092308 -2.688055,4.828234 -1.350145,7.492717 2.170965,4.31761 6.61946,5.204579 15.372055,3.063192 2.942201,-0.720224 6.023186,-1.282167 8.764001,-1.600785 5.18136,-0.601725 9.681942,0.884252 11.412166,3.767309 l 0.268602,0.447578 0.02525,-0.04322 0.02553,0.04304 0.266072,-0.449574 c 1.713918,-2.89586 6.206017,-4.415272 11.390667,-3.852092 2.742553,0.298231 5.826616,0.837245 8.77285,1.535576 8.764493,2.076251 13.207893,1.156217 15.354448,-3.177445 1.322837,-2.674376 0.628555,-6.405219 -1.392406,-7.482518 -0.155007,-0.08265 -0.459964,-0.246847 -0.677657,-0.364866 -1.447208,-0.784847 -2.797204,-0.354917 -3.420861,1.089389 -0.469476,1.087295 0.108882,2.175978 1.157684,2.179166 0.724727,0.0021 0.981154,-0.31725 1.13262,-1.411001 0.08098,-0.584742 1.358277,0.295042 1.791471,1.23395 1.170243,2.536623 -0.149902,5.509101 -2.910286,6.553195 -1.86385,0.705129 -3.958889,0.5394 -11.878911,-0.939772 -5.484816,-1.024373 -9.147737,-1.312056 -12.229219,-0.960531 -2.657366,0.303184 -5.550787,1.594382 -6.945807,3.099632 -0.232733,0.251074 -0.334269,0.37406 -0.443379,0.36272 z"
       id="path9"
       style="stroke-width:0.0342618"
       inkscape:transform-center-x="4.8739484"
       inkscape:transform-center-y="3.9315923" />
  </g>
</svg>
