<?xml version="1.0" encoding="UTF-8" standalone="no"?>
<!-- Generator: Adobe Illustrator 14.0.0, SVG Export Plug-In . SVG Version: 6.00 Build 43363)  -->

<svg
   version="1.2"
   id="mapStart"
   x="0px"
   y="0px"
   width="950px"
   height="620px"
   viewBox="0 0 950 620"
   xml:space="preserve"
   inkscape:version="1.1 (c4e8f9e, 2021-05-24)"
   sodipodi:docname="map_start.svg"
   xmlns:inkscape="http://www.inkscape.org/namespaces/inkscape"
   xmlns:sodipodi="http://sodipodi.sourceforge.net/DTD/sodipodi-0.dtd"
   xmlns="http://www.w3.org/2000/svg"
   xmlns:svg="http://www.w3.org/2000/svg"
   xmlns:rdf="http://www.w3.org/1999/02/22-rdf-syntax-ns#"
   xmlns:cc="http://creativecommons.org/ns#"
   xmlns:dc="http://purl.org/dc/elements/1.1/">
   <path
     id="estonia"
     d="M517.77,143.66l-5.6-0.2l-3.55,2.17l-0.05,1.61l2.3,2.17l7.15,1.21L517.77,143.66L517.77,143.66z" /><path
     id="algeria"
     d="M473.88,227.49l-4.08-1.37l-16.98,3.19l-3.7,2.81l2.26,11.67l-6.75,0.27l-4.06,6.53l-9.67,2.32l0.03,4.75l31.85,24.35l5.43,0.46l18.11-14.15l-1.81-2.28l-3.4-0.46l-2.04-3.42v-14.15l-1.36-1.37l0.23-3.65l-3.62-3.65l-0.45-3.88l1.58-1.14l-0.68-4.11L473.88,227.49L473.88,227.49z" /><path
     id="morocco"
     d="M448.29,232.28h-11.55l-2.26,5.02l-5.21,2.51l-4.3,11.64l-8.38,5.02l-11.77,19.39l11.55-0.23l0.45-5.7h2.94v-7.76h10.19l0.23-10.04l9.74-2.28l4.08-6.62l6.34-0.23L448.29,232.28L448.29,232.28z" /><path
     id="mauretania"
     d="M404.9,276.66l2.18,2.85l-0.45,12.32l3.17-2.28l2.26-0.46l3.17,1.14l3.62,5.02l3.4-2.28l16.53-0.23l-4.08-27.61l4.38-0.02l-8.16-6.25l0.01,4.06l-10.33,0.01l-0.05,7.75l-2.97-0.01l-0.38,5.72L404.9,276.66L404.9,276.66z" /><path
     id="senegal"
     d="M410.12,290.32l-3.94,2.86l-0.9,1.6l-0.28,1.6l1.45,1.04l4.84-0.07l3.11-0.84l0.35,1.53l-0.28,2.02l2.97,1.46l0.62,0.7l3.94,0.14l0.14-1.74l-3.6-4.32l-4.01-5.43l-2.49-1.04L410.12,290.32L410.12,290.32z" /><path
     id="gambia"
     d="M406.89,298.34l-0.13,1.11l6.92-0.1l0.35-1.03l-0.15-1.04l-1.99,0.81L406.89,298.34L406.89,298.34z" /><path
     id="casamance"
     d="M406.79,300.22l1.24,3.01l0.69-1.86l8.41,0.88l-3.64-1.87L406.79,300.22L406.79,300.22z" /><path
     id="bissau"
     d="M408.6,304.53l1.4,2.77l3.93-3.38l0.04-1.04l-4.63-0.67L408.6,304.53L408.6,304.53z" /><path
     id="guinee"
     d="M410.42,307.94l3.04,4.68l3.96-3.44l4.06-0.18l3.38,4.49l2.87,1.89l1.08-2.1l0.96-0.54l-0.07-4.62l-1.91-5.48l-5.86,0.65l-7.25-0.58l-0.04,1.86L410.42,307.94L410.42,307.94z" /><path
     id="sierra leone"
     d="M413.93,313.13l5.65,5.46l4.03-4.89l-2.52-3.95l-3.47,0.35L413.93,313.13L413.93,313.13z" /><path
     id="liberia"
     d="M420.17,319.19l10.98,7.34l-0.26-5.56l-3.32-3.91l-3.24-2.87L420.17,319.19L420.17,319.19z" /><path
     id="ivoire"
     d="M432.07,326.75l4.28-3.03l5.32-0.93l5.43,1.17l-2.77-4.19l-0.81-2.56l0.81-7.57l-4.85,0.23l-2.2-2.1l-4.62,0.12l-2.2,0.35l0.23,5.12l-1.16,0.47l-1.39,2.56l3.58,4.19L432.07,326.75L432.07,326.75z" /><path
     id="mali"
     d="M419.46,295.84l3.08-2.11l17.12-0.1l-3.96-27.54l4.52-0.13l21.87,16.69l2.94,0.42l-1.11,9.28l-13.75,1.25l-10.61,7.92l-1.93,5.42l-7.37,0.31l-1.88-5.41l-5.65,0.4l0.22-1.77L419.46,295.84L419.46,295.84z" /><path
     id="burkina"
     d="M450.59,294.28l3.64-0.29l5.97,8.44l-5.54,4.18l-4.01-1.03l-5.39,0.07l-0.87,3.16l-4.52,0.22l-1.24-1.69l1.6-5.14L450.59,294.28L450.59,294.28z" /><path
     id="niger"
     d="M460.89,302l2.55-0.06l2.3-3.45l3.86-0.69l4.11,2.51l8.77,0.25l6.78-2.76l2.55-2.19l0.19-2.88l4.73-4.77l1.25-10.53l-3.11-6.52l-7.96-1.94l-18.42,14.36l-2.61-0.25l-1.12,9.97l-9.4,0.94L460.89,302L460.89,302z" /><path
     id="ghana"
     d="M444.34,317.05l1.12,2.63l2.92,4.58l1.62-0.06l4.42-2.51l-0.31-14.29l-3.42-1l-4.79,0.13L444.34,317.05L444.34,317.05z" /><path
     id="togo"
     d="M455.22,321.25l2.68-1.57l-0.06-10.35l-1.74-2.82l-1.12,0.94L455.22,321.25L455.22,321.25z" /><path
     id="benin"
     d="M458.71,319.49h2.12l0.12-6.02l2.68-3.89l-0.12-6.77l-2.43-0.06l-4.17,3.26l1.74,3.32L458.71,319.49L458.71,319.49z" /><path
     id="nigeria"
     d="M461.57,319.37l3.92,0.19l4.73,5.27l2.3,0.63l1.8-0.88l2.74-0.38l0.93-3.82l3.73-2.45l4.04-0.19l7.4-13.61l-0.12-3.07l-3.42-2.63l-6.84,3.01l-9.15-0.13l-4.36-2.76l-3.11,0.69l-1.62,2.82l-0.12,7.96l-2.61,3.7L461.57,319.37L461.57,319.37z" /><path
     id="tunisia"
     d="M474.91,227.33l5.53-2.23l1.82,1.18l0.07,1.44l-0.85,1.11l0.13,1.97l0.85,0.46v3.54l-0.98,1.64l0.13,1.05l3.71,1.31l-2.99,4.65l-1.17-0.07l-0.2,3.74l-1.3,0.2l-1.11-0.98l0.26-3.8l-3.64-3.54l-0.46-3.08l1.76-1.38L474.91,227.33L474.91,227.33z" /><path
     id="libya"
     d="M480.05,248.03l1.56-0.26l0.46-3.6h0.78l3.19-5.24l7.87,2.29l2.15,3.34l7.74,3.54l4.03-1.7l-0.39-1.7l-1.76-1.7l0.2-1.18l2.86-2.42h5.66l2.15,2.88l4.55,0.66l0.59,36.89l-3.38-0.13l-20.42-10.62l-2.21,1.25l-8.39-2.1l-2.28-3.01l-3.32-0.46l-1.69-3.01L480.05,248.03L480.05,248.03z" /><path
     id="egypt"
     d="M521.93,243.06l2.67,0.07l5.2,1.44l2.47,0.07l3.06-2.56h1.43l2.6,1.44h3.29l0.59-0.04l2.08,5.98l0.59,1.93l0.55,2.89l-0.98,0.72l-1.69-0.85l-1.95-6.36l-1.76-0.13l-0.13,2.16l1.17,3.74l9.37,11.6l0.2,4.98l-2.73,3.15L522.32,273L521.93,243.06L521.93,243.06z" /><path
     id="chad"
     d="M492.79,296l0.13-2.95l4.74-4.61l1.27-11.32l-3.16-6.04l2.21-1.13l21.4,11.15l-0.13,10.94l-3.77,3.21v5.64l2.47,4.78h-4.36l-7.22,7.14l-0.19,2.16l-5.33-0.07l-0.07,0.98l-3.04-0.4l-2.08-3.93l-1.56-0.77l0.2-1.2l1.96-1.5v-7.02l-2.71-0.42l-3.27-2.43L492.79,296L492.79,296L492.79,296z" /><path
     d="M 549.08398 310.33984 L 546.14062 305.39648 L 545.83203 301.80078 L 545.125 301.93555 L 544.93359 303.04297 L 541.07617 308.67773 L 537.99805 307.20898 L 534.92773 309.78125 L 528.57617 309.41602 L 525.76562 307.16992 L 521.73242 309.23438 L 521.58008 310.60938 L 520.34961 311.34961 L 532.66992 324.0293 L 539.38086 324.41016 L 540.35938 325.90039 L 549.96094 326.07031 L 550.03906 323.91992 L 550.85938 322.42969 L 554.06055 322.01953 L 550.07031 316.23047 L 547.13086 316.23047 L 546.38086 312.11914 L 548.74023 311.08008 L 549.08398 310.33984 z "
     id="south_sudan"
     inkscape:label="#south sudan" /><path
     d="M 552 270.60938 L 548.31055 274.33008 L 522.50977 274.09961 L 522.78906 280.66992 L 520.33008 280.59961 L 520.15039 292.42969 L 516.41992 295.64062 L 516.26953 300.58008 L 518.96094 305.89062 L 521.91016 307.63086 L 521.86523 308.04492 L 525.88477 305.98633 L 528.95117 308.43555 L 534.58984 308.75977 L 537.84766 306.03125 L 540.73438 307.40625 L 543.98438 302.6582 L 544.25781 301.08203 L 546.73438 300.61133 L 547.11914 305.08203 L 549.5957 309.24219 L 555.59961 296.33008 L 555.59961 288.48047 L 559.96094 283.33984 L 552 270.60938 z "
     id="sudan" /><path
     id="cameroon"
     d="M477.82,324.28l3.22,2.96l-0.23,4.58l17.66-0.41l1.44-1.62l-5.06-5.45l-0.75-1.97l3.22-6.03l-2.19-4l-1.84-0.99v-2.03l2.13-1.39l0.12-6.32l-1.69-0.19l-0.03,3.32l-7.42,13.85l-4.54,0.23l-3.11,2.14L477.82,324.28L477.82,324.28z" /><path
     id="centrafrique"
     d="M495.66,324.05l4.66,5.04l1.84-2.38l2.93,0.12l0.63-2.32l2.88-1.8l5.98,4.12l3.45-3.42l13.39,0.59L519,311.18l1.67-1.04l0.23-2.26l-2.82-1.33h-4.14l-6.67,6.61l-0.23,2.72l-5.29-0.17l-0.17,1.16l-3.45-0.35l-3.11,5.91L495.66,324.05L495.66,324.05z" /><path
     id="sao tome"
     d="M470.74,337.15l1.15-0.58l0.86,0.7l-0.86,1.33l-1.04-0.41L470.74,337.15L470.74,337.15z" /><path
     id="principe"
     d="M473.05,333.5l1.73-0.29l0.58,1.1l-0.86,0.93l-0.86-0.12L473.05,333.5L473.05,333.5z" /><path
     id="bioko"
     d="M476.84,327.41l-0.46,1.97l1.38,0.75l1.32-0.99l-0.46-2.03L476.84,327.41L476.84,327.41z" /><path
     id="gabon"
     d="M486.39,332.63l-0.12,2.49l-5.64-0.12l-3.45,6.67l8.11,8.87l2.01-1.68l-0.06-1.74l-1.38-0.64v-1.22l3.11-1.97l2.76,2.09l3.05,0.06l-0.06-10.49l-4.83-0.23l-0.06-2.2L486.39,332.63L486.39,332.63z" /><path
     id="equatorial guinea"
     d="M480.99,332.69l-0.06,1.39l4.54,0.23l-0.06-1.57L480.99,332.69L480.99,332.69z" /><path
     id="congo"
     d="M491,332.52l-0.06,1.45l4.78,0.12l0.17,12.41l-4.37-0.12l-2.53-1.97l-1.96,1.1l-0.09,0.55l1.01,0.49l0.29,2.55l-2.7,2.32l0.58,1.22l2.99-2.32h1.44l0.46,1.39l1.9,0.81l6.1-5.16l-0.12-3.77l1.27-3.07l3.91-2.9l1.05-9.81l-2.78,0.01l-3.22,4.41L491,332.52L491,332.52z" /><path
     id="cabinda"
     d="M486.55,353.23l1.74,2.26l2.25-2.13l-0.66-2.21l-0.56-0.04L486.55,353.23L486.55,353.23z" /><path
     id="drc"
     d="M489.38,355.71l10.31-0.18l2.09,2.97l-0.08,2.19l0.77,0.7h5.12l1.47-2.89h2.09l0.85,0.86l2.87-0.08l0.85,10.08l4.96,0.16v0.78l13.33,6.01l0.62,1.17h2.79l-0.31-4.22l-5.04-2.42l0.31-3.2l2.17-5.08l4.96-0.16l-4.26-14.14l0.08-6.01l6.74-10.54l0.08-1.48l-1.01-0.55l0.04-2.86l-1.23-0.11l-1.24-1.58l-20.35-0.92l-3.73,3.63l-6.11-4.02l-2.15,1.32l-1.56,13.13l-3.86,2.98l-1.16,2.64l0.21,3.91l-6.96,5.69l-1.85-0.84l0.25,1.09L489.38,355.71L489.38,355.71z" /><path
     id="zambia"
     d="M514.55,384.7l3.17,4.4l4.91,0.3l1.74,0.96l5.14,0.06l4.43-6.21l12.38-5.54l1.08-4.88l-1.44-6.99l-6.46-3.68l-4.31,0.3l-2.15,4.76l0.06,2.17l5.08,2.47l0.3,5.37l-4.37,0.24l-1.08-1.81l-12.14-5.18l-0.36,3.98l-5.74,0.18L514.55,384.7L514.55,384.7z" /><path
     id="angola"
     d="M488.62,356.71l3.41,12.73l-0.08,4.02l-4.99,5.36l-0.75,8.71l19.2,0.17l6.24,2.26l5.15-0.67l-3-3.76l0.01-10.74l5.9-0.25v-4.19l-4.79-0.2l-0.96-9.92l-2.02,0.03l-1.09-0.98l-1.19,0.06l-1.58,3.06H502l-1.41-1.42l0.42-2.01l-1.66-2.43L488.62,356.71L488.62,356.71z" /><path
     id="zimbabwe"
     d="M524.66,392.3l8.97,10.13l6.88,1.75l4.61-7.23l-0.36-9.58l-7.48-3.86l-2.81,1.27l-4.19,6.39l-5.8-0.06L524.66,392.3L524.66,392.3z" /><path
     id="namibia"
     d="M496.55,421.96l3.35,0.24l1.97,1.99l4.67,0.06l1.14-13.26v-8.68l2.99-0.6l1.14-9.1l7.6-0.24l2.69-2.23l-4.55-0.18l-6.16,0.84l-6.64-2.41h-18.66l0.48,5.3l6.22,9.16l-1.08,4.7l0.06,2.47L496.55,421.96L496.55,421.96z" /><path
     id="botswana"
     d="M508.51,411.23l2.15,0.66l-0.3,6.15l2.21,0.3l5.08-4.58l6.1,0.66l1.62-4.1l7.72-7.05l-9.27-10.67l-0.12-1.75l-1.02-0.3l-2.81,2.59l-7.3,0.18l-1.02,9.1l-2.87,0.66L508.51,411.23L508.51,411.23z" /><path
     id="lesotho"
     d="M527.41,425.39l3.05-2.35l1.44,0.06l1.74,2.17l-0.18,2.17l-2.93,1.08v0.84l-3.23-0.18l-0.78-2.35L527.41,425.39L527.41,425.39z" /><path
     id="south africa"
     d="M534.16,403.63l-7.9,7.3l-1.88,4.51l-6.26-0.78l-5.21,4.63l-3.46-0.34l0.28-6.4l-1.23-0.43l-0.86,13.09l-6.14-0.06l-1.85-2.18l-2.71-0.03l2.47,7.09l4.41,4.17l-3.15,3.67l2.04,4.6l4.72,1.8l3.76-3.2l10.77,0.06l0.77-0.96l4.78-0.84l16.17-16.1l-0.06-5.07l-1.73,2.24h-2.59l-3.15-2.64l1.6-3.98l2.75-0.56l-0.25-8.18L534.16,403.63L534.16,403.63z M530.37,422.13l1.51-0.06l2.45,2.66l-0.07,3.08l-2.87,1.45l-0.18,1.02l-4.38,0.05l-1.37-3.3l1.25-2.42L530.37,422.13L530.37,422.13z" /><path
     id="terceira"
     d="M379.97,216.2l-1.63,1.09l1.36,1.09l2.17-0.55L379.97,216.2L379.97,216.2z" /><path
     id="pico"
     d="M381.05,220.03l-0.81,2.19l1.08,1.37l1.36-1.09L381.05,220.03L381.05,220.03z" /><path
     id="sao miguel"
     d="M387.56,224.4l-0.54,1.37l0.81,0.82l2.17-1.37L387.56,224.4L387.56,224.4z" /><path
     id="madeira"
     d="M408.18,236.42l-1.08,1.37l1.08,1.37l1.63-0.82L408.18,236.42L408.18,236.42z" /><path
     id="lanzarote"
     d="M415.62,253.73l-1.75,1.01l0.81,0.82L415.62,253.73L415.62,253.73z" /><path
     id="gran canaria"
     d="M409.54,253.92l-2.17,0.55l1.08,1.64h1.63L409.54,253.92L409.54,253.92z" /><path
     id="tenerife"
     d="M404.38,252.28l-1.36,1.37l1.9,1.64l1.08-2.46L404.38,252.28L404.38,252.28z" /><path
     id="santo antao"
     d="M387.56,290.54l-1.9,1.09l1.36,1.09l1.63-0.82L387.56,290.54L387.56,290.54z" /><path
     id="boa vista"
     d="M392.23,292.74l-1.24,1.1l0.88,1.63l2.12-0.95L392.23,292.74L392.23,292.74z" /><path
     id="santiago"
     d="M389.52,295.83l-1.59,0.95l1.71,2.29l1.35-0.71L389.52,295.83L389.52,295.83z" /><path
     id="turkey"
     d="M558.7,209.19l-2.23,2.36l-8.2-0.24l-4.92-2.95l-4.8-0.12l-5.51,3.9l-5.16,0.24l-0.47,2.95h-5.86l-2.34,2.13v1.18l1.41,1.18v1.3l-0.59,1.54l0.59,1.3l1.88-0.94l1.88,2.01l-0.47,1.42l-0.7,0.95l1.05,1.18l5.16,1.06l3.63-1.54v-2.24l1.76,0.35l4.22,2.48l4.57-0.71l1.99-1.89l1.29,0.47v2.13h1.76l1.52-2.95l13.36-1.42l5.83-0.71l-1.54-2.02l-0.03-2.73l1.17-1.4l-4.26-3.42l0.23-2.95h-2.34L558.7,209.19L558.7,209.19z" /><path
     id="norway"
     d="M515.46,102.14l2.02-1.48L517.3,99l-1.28-0.74l0.18-2.03h1.1v-1.11l-4.77-1.29l-7.15,0.74l-0.73,3.14L503,97.16l-1.1-1.85l-3.49,0.18L498.04,99l-1.65,0.74l-0.92-1.85l-7.34,5.91l1.47,1.66l-2.75,1.29l-6.24,12.38l-2.2,1.48l0.18,1.11l2.2,1.11l-0.55,2.4l-3.67-0.19l-1.1-1.29l-2.38,2.77l-1.47,1.11l-0.37,2.59l-1.28,0.74l-3.3,0.74l-1.65,5.18l1.1,8.5l1.28,3.88l1.47,1.48l3.3-0.18l4.77-4.62l1.83-3.14l0.55,4.62l3.12-5.54l0.18-15.53l2.54-1.6l0.76-8.57l7.7-11.09l3.67-1.29l1.65-2.03l5.5,1.29l2.75,1.66l0.92-4.62l4.59-2.77L515.46,102.14L515.46,102.14z" /><path
     id="britain"
     d="M446.12,149.08l-1.83,2.77l0.73,1.11h4.22v1.85l-1.1,1.48l0.73,3.88l2.38,4.62l1.83,4.25l2.93,1.11l1.28,2.22l-0.18,2.03l-1.83,1.11l-0.18,0.92l1.28,0.74l-1.1,1.48l-2.57,1.11l-4.95-0.55l-7.71,3.51l-2.57-1.29l7.34-4.25l-0.92-0.55l-3.85-0.37l2.38-3.51l0.37-2.96l3.12-0.37l-0.55-5.73l-3.67-0.18l-1.1-1.29l0.18-4.25l-2.2,0.18l2.2-7.39l4.04-2.96L446.12,149.08L446.12,149.08z" /><path
     id="ulster"
     d="M438.42,161.47l-3.3,0.37l-0.18,2.96l2.2,1.48l2.38-0.55l0.92-1.66L438.42,161.47L438.42,161.47z" /><path
     id="ireland"
     d="M439.51,166.55l-0.91,6l-8.07,2.96h-2.57l-1.83-1.29v-1.11l4.04-2.59l-1.1-2.22l0.18-3.14l3.49,0.18l1.6-3.76l-0.21,3.34l2.71,2.15L439.51,166.55L439.51,166.55z" /><path
     id="sweden"
     d="M497.72,104.58l1.96,1.81h3.67l2.02,3.88l0.55,6.65l-4.95,3.51v3.51l-3.49,4.81l-2.02,0.18l-2.75,4.62l0.18,4.44l4.77,3.51l-0.37,2.03l-1.83,2.77l-2.75,2.4l0.18,7.95l-4.22,1.48l-1.47,3.14h-2.02l-1.1-5.54l-4.59-7.04l3.77-6.31l0.26-15.59l2.6-1.43l0.63-8.92l7.41-10.61L497.72,104.58L497.72,104.58z" /><path
     id="finland"
     d="M506.79,116.94l2.07,0.91l1.28,2.4l-1.28,1.66l-6.42,7.02l-1.1,3.7l1.47,5.36l4.95,3.7l6.6-3.14l5.32-0.74l4.95-7.95l-3.67-8.69l-3.49-8.32l0.55-5.36l-2.2-0.37l-0.57-3.91l-2.96-4.83l-3.28,2.27l-1.29,5.27l-3.48-2.09l-4.84-1.18l-1.08,1.26l1.86,1.68l3.39-0.06l2.73,4.41L506.79,116.94L506.79,116.94z" /><path
     id="path302"
     d="M518.07,151.37l-6.85-1.11l0.15,3.83l6.35,3.88l2.6-0.76l-0.15-2.92L518.07,151.37L518.07,151.37z" /><path
     id="hiumaa"
     d="M506.76,147.64l-1.55-0.05l-0.9,0.91l0.65,0.96l1.55,0.1l0.8-1.16L506.76,147.64L506.76,147.64z" /><path
     id="saaremaa"
     d="M506.61,151.72l-1.5-0.15l-2.7,3.23v1.51l0.9,0.35l1.75,0.05l2.9-2.37l0.4-0.81L506.61,151.72L506.61,151.72z" /><path
     id="lithuania"
     d="M510.81,154.7l-2.15-0.05l-2.95,2.82h-2.5l0.15,3.53l-1.5,2.77l5.4,0.05l1.55-0.2l1.55,1.87l3.55-0.15l3.4-4.33l-0.2-2.57L510.81,154.7L510.81,154.7z" /><path
     id="belarus"
     d="M510.66,166.29l1.5,2.47l-0.6,1.97l0.1,1.56l0.55,1.87l3.1-1.76l3.85,0.1l2.7,1.11h6.85l2-4.79l1.2-1.81v-1.21l-4.3-6.05l-3.8-1.51l-3.1-0.35l-2.7,0.86l0.1,2.72l-3.75,4.74L510.66,166.29L510.66,166.29z" /><path
     id="poland"
     d="M511.46,174.76l0.85,1.56l0.2,1.66l-0.7,1.61l-1.6,3.08l-1.35,0.61l-1.75-0.76l-1.05,0.05l-2.55,0.96l-2.9-0.86l-4.7-3.33l-4.6-2.47l-1.85-2.82l-0.35-6.65l3.6-3.13l4.7-1.56l1.75-0.2l-0.7,1.41l0.45,0.55l7.91,0.15l1.7-0.05l2.8,4.29l-0.7,1.76l0.3,2.07L511.46,174.76L511.46,174.76z" /><path
     id="spain"
     d="M448.36,205h-12.74l-2.57-1.16l-1.24,0.09l-1.5,3.12l0.53,3.21l4.87,0.45l0.62,2.05l-2.12,11.95l0.09,2.14l3.45,1.87l3.98,0.27l7.96-1.96l3.89-4.9l0.09-4.99l6.9-6.24l0.35-2.76l-6.28-0.09L448.36,205L448.36,205z" /><path
     id="portugal"
     d="M430.93,211.24l-0.62,8.65l-1.77,1.6l0.18,0.98l1.24,2.05l-0.8,2.5l1.33,0.45l3.1-0.36l-0.18-2.5l2.03-11.59l-0.44-1.6L430.93,211.24L430.93,211.24z" /><path
     id="majorca"
     d="M461.1,217.21l-1.59,0.54l0.35,1.43h2.3l0.97-1.07L461.1,217.21L461.1,217.21z" /><path
     id="sardinia"
     d="M477.56,213.38l-2.65,1.34l0.35,5.17l2.12,0.36l1.59-1.52v-4.9L477.56,213.38L477.56,213.38z" /><path
     id="corsica"
     d="M477.83,206.96l-1.95,1.96l-0.18,1.78l1.59,0.98l0.62-0.09l0.35-2.59L477.83,206.96L477.83,206.96z" /><path
     id="france"
     d="M460.4,178.7l-2.21,0.54l-4.42,4.81l-1.33,0.09l-1.77-1.25l-1.15,0.27l-0.88,2.76l-6.46,0.18l0.18,1.43l4.42,2.94l5.13,4.1l-0.09,4.9l-2.74,4.81l5.93,2.85l6.02,0.18l1.86-2.14l3.8,0.09l1.06,0.98l3.8-0.27l1.95-2.5l-2.48-2.94l-0.18-1.87l0.53-2.05l-1.24-1.78l-2.12,0.62l-0.27-1.6l4.69-5.17v-3.12l-3.1-1.78l-1.59-0.27L460.4,178.7L460.4,178.7z" /><path
     id="netherlands"
     d="M470.09,168.27l-4.53,2.23l0.96,0.87l0.1,2.23l-0.96-0.19l-1.06-1.65l-2.53,4.01l3.89,0.81l1.45,1.53l0.77,0.02l0.51-3.46l2.45-1.03L470.09,168.27L470.09,168.27z" /><path
     id="belgium"
     d="M461.61,176.52l-0.64,1.6l6.88,4.54l1.98,0.47l0.07-2.15l-1.73-1.94h-1.06l-1.45-1.65L461.61,176.52L461.61,176.52z" /><path
     id="germany"
     d="M471.14,167.88l3.57-0.58v-2.52l2.99-0.49l1.64,1.65l1.73,0.19l2.7-1.17l2.41,0.68l2.12,1.84l0.29,6.89l2.12,2.82l-2.79,0.39l-4.63,2.91l0.39,0.97l4.14,3.88l-0.29,1.94l-3.85,1.94l-3.57,0.1l-0.87,1.84h-1.83l-0.87-1.94l-3.18-0.78l-0.1-3.2l-2.7-1.84l0.29-2.33l-1.83-2.52l0.48-3.3l2.5-1.17L471.14,167.88L471.14,167.88z" /><path
     id="denmark"
     d="M476.77,151.5l-4.15,4.59l-0.15,2.99l1.89,4.93l2.96-0.56l-0.37-4.03l2.04-2.28l-0.04-1.79l-1.44-3.73L476.77,151.5L476.77,151.5z" /><path
     id="sjælland"
     d="M481.44,159.64l-0.93-0.04l-1.22,1.12l0.15,1.75l2.89,0.08l0.15-1.98L481.44,159.64L481.44,159.64z" /><path
     id="gotland"
     d="M498.49,150.17l-2.11,1.67l1.06,2.45l1.87-1.82L498.49,150.17L498.49,150.17z" /><path
     id="switzerland"
     d="M472.91,189.38l-4.36,4.64l0.09,0.47l1.79-0.56l1.61,2.24l2.72-0.96l1.88,1.46l0.77-0.44l2.32-3.64l-0.59-0.56l-2.29-0.06l-1.11-2.27L472.91,189.38L472.91,189.38z" /><path
     id="czech"
     d="M488.43,184.87h2.97h1.46l2.37,1.69l4.39-3.65l-4.26-3.04l-4.22-2.04l-2.89,0.52l-3.92,2.52L488.43,184.87L488.43,184.87z" /><path
     id="slovakia"
     d="M495.84,187.13l0.69,0.61l0.09,1.04l7.63-0.17l5.64-2.43l-0.09-2.47l-1.08,0.48l-1.55-0.83l-0.95-0.04l-2.5,1l-3.4-0.82L495.84,187.13L495.84,187.13z" /><path
     id="austria"
     d="M480.63,190.12l-0.65,1.35l0.56,0.96l2.33-0.48h1.98l2.15,1.82l4.57-0.83l3.36-2l0.86-1.35l-0.13-1.74l-3.02-2.26l-4.05,0.04l-0.34,2.3l-4.26,2.08L480.63,190.12L480.63,190.12z" /><path
     id="hungary"
     d="M496.74,189.6l-1.16,1.82l0.09,2.78l1.85,0.95l5.69,0.17l7.93-6.68l0.04-1.48l-0.86-0.43l-5.73,2.6L496.74,189.6L496.74,189.6z" /><path
     id="slovenia"
     d="M494.8,191.99l-2.54,1.52l-4.74,1.04l0.95,2.74l3.32,0.04l3.06-2.56L494.8,191.99L494.8,191.99z" /><path
     id="croatia"
     d="M495.62,195.16l-3.53,2.91h-3.58l-0.43,2.52l1.64,0.43l0.82-1.22l1.29,1.13l1.03,3.6l7.07,3.3l0.7-0.8l-7.17-7.4l0.73-1.35l6.81-0.26l0.69-2.17l-4.44,0.13L495.62,195.16L495.62,195.16z" /><path
     id="bosnia"
     d="M494.8,198.94l-0.37,0.61l6.71,6.92l2.46-3.62l-0.09-1.43l-2.15-2.61L494.8,198.94L494.8,198.94z" /><path
     id="italy"
     d="M472.27,196.98l-0.62,1.57l0.17,1.71l2.39,2.79l3.76-0.13l8.3,9.64l5.18,1.5l3.06,2.89l0.73,6.59l1.64-0.96l1.42-3.59l-0.35-2.58l2.43-0.22l0.35-1.46l-6.85-3.28l-6.5-6.39l-2.59-3.82l-0.63-3.63l3.31-0.79l-0.85-2.39l-2.03-1.71l-1.75-0.08l-2.44,0.67l-2.3,3.22l-1.39,0.92l-2.15-1.32L472.27,196.98L472.27,196.98z" /><path
     id="sicily"
     d="M492.44,223.02l-1.45-0.78l-4.95,0.78l0.17,1.34l4.45,2.24l0.67,0.73l1.17,0.17L492.44,223.02L492.44,223.02z" /><path
     id="malta"
     d="M492.61,230.47l-1.67,0.34l0.06,1.85l1.5,0.5l0.67-0.56L492.61,230.47L492.61,230.47z" /><path
     id="ukraine"
     d="M515.57,173.15l-2.9,1.63l0.72,3.08l-2.68,5.65l0.02,2.49l1.26,0.8l8.08,0.4l2.26-1.87l2.42,0.81l3.47,4.63l-2.54,4.56l3.02,0.88l3.95-4.55l2.26,0.41l2.1,1.46l-1.85,2.44l2.5,3.9h2.66l1.37-2.6l2.82-0.57l0.08-2.11l-5.24-0.81l0.16-2.27h5.08l5.48-4.39l2.42-2.11l0.4-6.66l-10.8-0.97l-4.43-6.25l-3.06-1.05l-3.71,0.16l-1.67,4.13l-7.6,0.1l-2.47-1.14L515.57,173.15L515.57,173.15z" /><path
     id="moldova"
     d="M520.75,187.71l3.1,4.77l-0.26,2.7l1.11,0.05l2.63-4.45l-3.16-3.92l-1.79-0.74L520.75,187.71L520.75,187.71z" /><path
     id="romania"
     d="M512.18,187.6l-0.26,1.48l-5.79,4.82l4.84,7.1l3.1,2.17h5.58l1.84-1.54l2.47-0.32l1.84,1.11l3.26-3.71l-0.63-1.86l-3.31-0.85l-2.26-0.11l0.11-3.18l-3-4.72L512.18,187.6L512.18,187.6z" /><path
     d="M 504.90234 207.24805 L 504.85742 206.3125 L 503.53711 204.45898 L 501.40039 207.48047 L 501.82031 208.75 L 503.56055 209.07031 L 504.90234 207.24805 z "
     id="montenegro" /><path
     d="M 505.55078 194.53906 L 503.5 196.08008 L 502.5 196.08008 L 501.82031 198.19922 L 504.24023 201.00977 L 504.40039 203.24023 L 504.05859 203.72266 L 505.69531 206.02148 L 505.75195 207.24023 L 506.92969 208.38086 L 510.76953 207.21094 L 510.44922 201.75 L 505.55078 194.53906 z "
     id="serbia"><desc
       id="desc7821">includes kosovo</desc></path><path
     id="bulgaria"
     d="M511.44,202.39l0.16,4.98l1.68,3.5l6.31,0.11l2.84-2.01l2.79-1.11l-0.68-3.18l0.63-1.7l-1.42-0.74l-1.95,0.16l-1.53,1.54l-6.42,0.05L511.44,202.39L511.44,202.39z" /><path
     id="albania"
     d="M504.02,209.76v4.61l1.32,2.49l0.95-0.11l1.63-2.97l-0.95-1.33l-0.37-3.29l-1.26-1.17L504.02,209.76L504.02,209.76z" /><path
     id="macedonia"
     d="M510.92,208.01l-3.37,1.11l0.16,2.86l0.79,1.01l4-1.86L510.92,208.01L510.92,208.01z" /><path
     id="greece"
     d="M506.71,217.6l-0.11,1.33l4.63,2.33l2.21,0.85l-1.16,1.22l-2.58,0.26l-0.37,1.17l0.89,2.01l2.89,1.54l1.26,0.11l0.16-3.45l1.89-2.28l-5.16-6.1l0.68-2.07l1.21-0.05l1.84,1.48l1.16-0.58l0.37-2.07l5.42,0.05l0.21-3.18l-2.26,1.59l-6.63-0.16l-4.31,2.23L506.71,217.6L506.71,217.6z" /><path
     id="thrace"
     d="M523.02,209.7l-0.16,3.55l3.1-0.95l1.42-0.95l-0.42-1.54l-1.47-1.17L523.02,209.7L523.02,209.7z" /><path
     id="crete"
     d="M516.76,230.59l1.63,0.05l0.68,1.01h2.37l1.58-0.58l0.53,0.64l-1.05,1.38l-4.63,0.16l-0.84-1.11l-0.89-0.53L516.76,230.59L516.76,230.59z" />
     </svg>
